<?xml version="1.0" encoding="utf-8"?>
<!-- Generator: Adobe Illustrator 22.0.1, SVG Export Plug-In . SVG Version: 6.00 Build 0)  -->
<svg version="1.1" id="Layer_1" xmlns="http://www.w3.org/2000/svg" xmlns:xlink="http://www.w3.org/1999/xlink" x="0px" y="0px"
	 viewBox="0 0 158.8 157.2" enable-background="new 0 0 158.8 157.2" xml:space="preserve">
<g>
	<path fill="#FFFFFF" d="M12.1,7h114.7l-9.4,27.1H36.5l6.5,39l32.1,0.3V86l-30.8,4.2l8.8,58.1L39,149L12.1,7z"/>
</g>
<g>
	<path fill="#FFFFFF" d="M117.5,144.4l-54.3,1.3l-2.3-13l48.3-2.3l14.9-86.3l19,1L117.5,144.4z"/>
</g>
<g>
	<path fill="#FFFFFF" d="M61.2,67.3c-8.5,0-13.3-5.5-13.3-12c0-6.1,4.6-11.8,13.2-11.8c1.6,0,3.3,0.2,4.9,0.7
		c8.2,2.4,8.7,9.9,8.7,11.4c0,3.9-2.1,7.4-5.1,9.4C67,66.7,64,67.3,61.2,67.3z M67.7,47.9c-1.1-0.8-2.7-1.3-4.4-1.3
		c-3.8,0-6.2,2.4-6.2,5.7c0,4.3,3.3,5.9,6.3,5.9c3,0,6.2-1.5,6.3-5.3C69.8,50.9,69.1,49,67.7,47.9z"/>
</g>
<g>
	<path fill="#FFFFFF" d="M102.6,68.3c-8.5,0-13.3-5.5-13.3-12c0-6.1,4.6-11.8,13.2-11.8c1.6,0,3.3,0.2,4.9,0.7
		c8.2,2.4,8.7,9.9,8.7,11.4c0,3.9-2.1,7.4-5.1,9.4C108.4,67.7,105.4,68.3,102.6,68.3z M104.2,53.7c-1-0.8-3.1-1.3-4.8-1.3
		c-3.7,0-6.1,2.3-6.1,5.5c0,4.2,3.3,5.7,6.2,5.7c2.9,0,6.1-1.5,6.2-5.2C105.8,56.6,105.6,54.8,104.2,53.7z"/>
</g>
<g>
	<path fill="#FFFFFF" d="M64.4,117.2l-7.3,3.9c-2.4,0.9-3.5,1.2-4.9,0.6c-2.2-1-3-4.6-3-6c0-1,0.7-3.6,1.3-4.3c1-1.1,2.5-3,3.5-3.2
		c-1-0.2-1.7-0.5-2.2-1.1c-0.1-0.2-1-0.8-1-1.7c0-1.7-0.3-3.8,1.9-5.4c2.6-1.9,3.9-1.9,9.5-2.7l6.3-0.3L64.4,117.2z M57.7,109.7
		c-1.3,0.3-3.5,1.9-3.5,4c0,2.1,0.5,2.8,1.8,2.5c1.3-0.3,4.8-2.3,4.8-2.3l0.6-4.4C61.4,109.6,59,109.4,57.7,109.7z M60,101.9
		c-0.9,0-2.3,0-3,1.5c-0.6,1.3-0.3,1.3,0.7,1.3h5l0.6-3.1L60,101.9z"/>
</g>
<g>
	<path fill="#FFFFFF" d="M80.3,96l8.3,20.3l-6.4-1l-0.9-4.2h-6.6l-0.9,2.9l-6.1,2.3l8-20.3H80.3z M77.9,100.3
		c-0.2,0.9-0.5,1.9-0.7,2.8c-0.4,1.4-1.1,3.5-1.5,4.8h4.6L77.9,100.3z"/>
</g>
<g>
	<path fill="#FFFFFF" d="M85.7,96.2l9.7,1c1.9,0,5.2,1.3,6.9,3.1c0.8,0.9,1.4,2.4,1.4,4c0,3.6-0.9,4.8-2.1,5.3l4.8,10.4l-5-1.6
		l-4.9-6.4l-2.5-0.6l1,6.4l-4.5-1L85.7,96.2z M92.5,102.5l1,5.5h5.3c0.6,0,0.8-0.7,0.8-3.1c0-2.3-1.7-2.4-2.6-2.4H92.5z"/>
</g>
</svg>
